<?xml version="1.0" encoding="utf-8"?>
<!-- Generator: Adobe Illustrator 18.0.0, SVG Export Plug-In . SVG Version: 6.00 Build 0)  -->
<!DOCTYPE svg PUBLIC "-//W3C//DTD SVG 1.1//EN" "http://www.w3.org/Graphics/SVG/1.1/DTD/svg11.dtd">
<svg version="1.1" id="Layer_1" xmlns="http://www.w3.org/2000/svg" xmlns:xlink="http://www.w3.org/1999/xlink" x="0px" y="0px"
	 viewBox="0 0 200 200" enable-background="new 0 0 200 200" xml:space="preserve">
<g>
	<line fill="none" stroke="#000F84" stroke-miterlimit="10" x1="18.1" y1="-0.2" x2="18.1" y2="200.2"/>
	<line fill="none" stroke="#000F84" stroke-miterlimit="10" x1="35.6" y1="-0.2" x2="35.6" y2="200.2"/>
	<line fill="none" stroke="#000F84" stroke-miterlimit="10" x1="179.9" y1="-0.2" x2="179.9" y2="200.2"/>
	<line fill="none" stroke="#000F84" stroke-miterlimit="10" x1="161.9" y1="-0.2" x2="161.9" y2="200.2"/>
	<line fill="none" stroke="#000F84" stroke-miterlimit="10" x1="143.9" y1="-0.2" x2="143.9" y2="200.2"/>
	<line fill="none" stroke="#000F84" stroke-miterlimit="10" x1="125.1" y1="-0.2" x2="125.1" y2="200.2"/>
	<line fill="none" stroke="#000F84" stroke-miterlimit="10" x1="107.6" y1="-0.2" x2="107.6" y2="200.2"/>
	<line fill="none" stroke="#000F84" stroke-miterlimit="10" x1="89.9" y1="-0.2" x2="89.9" y2="200.2"/>
	<line fill="none" stroke="#000F84" stroke-miterlimit="10" x1="71.6" y1="-0.2" x2="71.6" y2="200.2"/>
	<line fill="none" stroke="#000F84" stroke-miterlimit="10" x1="53.9" y1="-0.2" x2="53.9" y2="200.2"/>
	<line fill="none" stroke="#000F84" stroke-miterlimit="10" x1="-0.5" y1="17.9" x2="200.2" y2="17.9"/>
	<line fill="none" stroke="#000F84" stroke-miterlimit="10" x1="-0.5" y1="36.1" x2="200.2" y2="36.1"/>
	<line fill="none" stroke="#000F84" stroke-miterlimit="10" x1="-0.5" y1="53.4" x2="200.2" y2="53.4"/>
	<line fill="none" stroke="#000F84" stroke-miterlimit="10" x1="-0.5" y1="72.1" x2="200.2" y2="72.1"/>
	<line fill="none" stroke="#000F84" stroke-miterlimit="10" x1="-0.5" y1="90.1" x2="200.2" y2="90.1"/>
	<line fill="none" stroke="#000F84" stroke-miterlimit="10" x1="-0.5" y1="108.1" x2="200.2" y2="108.1"/>
	<line fill="none" stroke="#000F84" stroke-miterlimit="10" x1="-0.5" y1="125.6" x2="200.2" y2="125.6"/>
	<line fill="none" stroke="#000F84" stroke-miterlimit="10" x1="-0.5" y1="143.1" x2="200.2" y2="143.1"/>
	<line fill="none" stroke="#000F84" stroke-miterlimit="10" x1="-0.5" y1="180.1" x2="200.2" y2="180.1"/>
	<line fill="none" stroke="#000F84" stroke-miterlimit="10" x1="-0.5" y1="161.4" x2="200.2" y2="161.4"/>
</g>
<rect fill="none" stroke="#000F84" stroke-miterlimit="10" width="200" height="200"/>
</svg>
