<?xml version="1.0" encoding="utf-8"?>
<!-- Generator: Adobe Illustrator 18.0.0, SVG Export Plug-In . SVG Version: 6.00 Build 0)  -->
<!DOCTYPE svg PUBLIC "-//W3C//DTD SVG 1.1//EN" "http://www.w3.org/Graphics/SVG/1.1/DTD/svg11.dtd">
<svg version="1.1" id="Layer_1" xmlns="http://www.w3.org/2000/svg" xmlns:xlink="http://www.w3.org/1999/xlink" x="0px" y="0px"
	 viewBox="0 0 200 200" enable-background="new 0 0 200 200" xml:space="preserve">
<g>
	<rect x="89.3" y="123.1" fill="#FFE5E6" width="11.5" height="11.5"/>
	<rect x="89.3" y="134.6" fill="#FFE5E6" width="11.5" height="11.5"/>
	<rect x="89.3" y="146.1" fill="#FFE5E6" width="11.5" height="11.5"/>
	<rect x="89.3" y="157.6" fill="#FFE5E6" width="11.5" height="11.5"/>
	<rect x="110.7" y="157.6" fill="#FFE5E6" width="11.5" height="11.5"/>
	<rect x="99.9" y="157.6" fill="#FFE5E6" width="11.5" height="11.5"/>
	<rect x="89.3" y="111.6" fill="#FFE5E6" width="11.5" height="11.5"/>
	<rect x="89.3" y="100.1" fill="#FFE5E6" width="11.5" height="11.5"/>
	<rect x="89.3" y="88.4" fill="#FFE5E6" width="11.5" height="11.5"/>
	<rect x="89.3" y="76.9" fill="#FFE5E6" width="11.5" height="11.5"/>
	<rect x="77.8" y="76.9" fill="#FFE5E6" width="11.5" height="11.5"/>
	<rect x="77.8" y="65.4" fill="#FFE5E6" width="11.5" height="11.5"/>
	<rect x="89.3" y="65.4" fill="#FFE5E6" width="11.5" height="11.5"/>
	<rect x="100.7" y="88.3" fill="#FFE5E6" width="11.5" height="11.5"/>
	<rect x="100.7" y="123.1" fill="#FFE5E6" width="11.5" height="11.5"/>
	<g>
		<rect x="89.3" y="53.9" fill="#FFE5E6" width="11.5" height="11.5"/>
		<rect x="89.3" y="42.4" fill="#FFE5E6" width="11.5" height="11.5"/>
	</g>
	<rect x="89.3" y="30.9" fill="#FFE5E6" width="11.5" height="11.5"/>
	<rect x="80.5" y="79.8" width="6" height="6"/>
	<rect x="80.5" y="68.2" width="6" height="6"/>
</g>
</svg>
