<?xml version="1.0" encoding="utf-8"?>
<!-- Generator: Adobe Illustrator 18.0.0, SVG Export Plug-In . SVG Version: 6.00 Build 0)  -->
<!DOCTYPE svg PUBLIC "-//W3C//DTD SVG 1.1//EN" "http://www.w3.org/Graphics/SVG/1.1/DTD/svg11.dtd">
<svg version="1.1" id="Layer_1" xmlns="http://www.w3.org/2000/svg" xmlns:xlink="http://www.w3.org/1999/xlink" x="0px" y="0px"
	 viewBox="0 0 200 200" enable-background="new 0 0 200 200" xml:space="preserve">
<g>
	<rect x="79.1" y="40.2" fill="#FFEBEB" width="41.9" height="41.9"/>
	<rect x="85" y="49.5" width="11.6" height="13.8"/>
	<rect x="103.3" y="49.5" width="11.6" height="13.8"/>
	<rect x="78.8" y="52.7" width="42.2" height="5.4"/>
	<rect x="78.8" y="34.8" fill="#FFFF00" width="42.2" height="5.4"/>
	<rect x="86.5" y="71.2" fill="#FF233B" width="27.1" height="3.4"/>
	<g>
		<rect x="79.1" y="81.5" fill="#FFEBEB" width="41.9" height="41.9"/>
		<rect x="79.1" y="123.4" fill="#FFEBEB" width="20.1" height="41.9"/>
		<rect x="100.7" y="123.4" fill="#FFEBEB" width="20.1" height="41.9"/>
	</g>
	<rect x="36" y="81.1" fill="#FFEBEB" width="128" height="20.1"/>
	<polygon fill="#443707" points="109,120 109,114 89,114 89,120 78,120 78,140 99,140 99,134 100,134 100,140 120,140 120,120 	"/>
	<polygon fill="#917200" points="141,80 121.1,80 78.3,80 58,80 58,101 78,101 78,120 121,120 121,101 141,101 	"/>
	<rect x="101" y="152.1" fill="#443707" width="19.8" height="13.1"/>
	<rect x="120.9" y="152.1" fill="#443707" width="19.8" height="13.1"/>
	<rect x="59.6" y="152.1" fill="#443707" width="19.8" height="13.1"/>
	<rect x="79.5" y="152.1" fill="#443707" width="19.8" height="13.1"/>
</g>
</svg>
