<?xml version="1.0" encoding="utf-8"?>
<!-- Generator: Adobe Illustrator 18.0.0, SVG Export Plug-In . SVG Version: 6.00 Build 0)  -->
<!DOCTYPE svg PUBLIC "-//W3C//DTD SVG 1.1//EN" "http://www.w3.org/Graphics/SVG/1.1/DTD/svg11.dtd">
<svg version="1.1" id="Layer_1" xmlns="http://www.w3.org/2000/svg" xmlns:xlink="http://www.w3.org/1999/xlink" x="0px" y="0px"
	 viewBox="0 0 200 200" enable-background="new 0 0 200 200" xml:space="preserve">
<g>
	<rect x="47.1" y="70" width="6" height="6"/>
	<path fill="#687D82" d="M26,77v15.4v4.3V107v15h14v-14.7v-0.2V92h15v14.9v0.2v14.7v7.2v6.7v0.3v16h0.2h0.2h14.7v-15.3v-0.2V122
		h14.8h14.9h14.9h15.4v10v5v15h14v-15.3v-14.9v-14.7v-0.2V92h15v14.2v0.6V121h14.4h0.3h0.3v-15V92.4v-0.5V77h-15H159h-14.5h-0.2
		h-14.7h-14.9h-14.6V63h-15V48h-15H55.3H40.1v14.8V77H26z M47.1,70h6v6h-6V70z"/>
</g>
</svg>
