<?xml version="1.0" encoding="utf-8"?>
<!-- Generator: Adobe Illustrator 18.0.0, SVG Export Plug-In . SVG Version: 6.00 Build 0)  -->
<!DOCTYPE svg PUBLIC "-//W3C//DTD SVG 1.1//EN" "http://www.w3.org/Graphics/SVG/1.1/DTD/svg11.dtd">
<svg version="1.1" id="Layer_1" xmlns="http://www.w3.org/2000/svg" xmlns:xlink="http://www.w3.org/1999/xlink" x="0px" y="0px"
	 viewBox="0 0 200 200" enable-background="new 0 0 200 200" xml:space="preserve">
<g>
	<rect x="71.2" y="94.3" fill="#687D82" width="11.5" height="11.5"/>
	<rect x="59.7" y="94.3" fill="#687D82" width="11.5" height="11.5"/>
	<rect x="48.2" y="94.3" fill="#687D82" width="11.5" height="11.5"/>
	<rect x="36.7" y="94.3" fill="#687D82" width="11.5" height="11.5"/>
	<rect x="36.7" y="82.9" fill="#687D82" width="11.5" height="11.5"/>
	<rect x="36.7" y="72.2" fill="#687D82" width="11.5" height="11.5"/>
	<rect x="82.7" y="94.3" fill="#687D82" width="11.5" height="11.5"/>
	<rect x="94.2" y="94.3" fill="#687D82" width="11.5" height="11.5"/>
	<rect x="105.8" y="94.3" fill="#687D82" width="11.5" height="11.5"/>
	<rect x="117.3" y="94.3" fill="#687D82" width="11.5" height="11.5"/>
	<rect x="117.3" y="82.8" fill="#687D82" width="11.5" height="11.5"/>
	<rect x="128.8" y="82.8" fill="#687D82" width="11.5" height="11.5"/>
	<rect x="128.8" y="94.3" fill="#687D82" width="11.5" height="11.5"/>
	<rect x="105.9" y="105.7" fill="#687D82" width="11.5" height="11.5"/>
	<rect x="71.2" y="105.7" fill="#687D82" width="11.5" height="11.5"/>
	<g>
		<rect x="140.3" y="94.3" fill="#687D82" width="11.5" height="11.5"/>
		<rect x="151.8" y="94.3" fill="#687D82" width="11.5" height="11.5"/>
	</g>
	<rect x="163.3" y="94.3" fill="#687D82" width="11.5" height="11.5"/>
	<rect x="120" y="85.5" width="6" height="6"/>
	<rect x="131.5" y="85.5" width="6" height="6"/>
</g>
</svg>
