<?xml version="1.0" encoding="utf-8"?>
<!-- Generator: Adobe Illustrator 18.0.0, SVG Export Plug-In . SVG Version: 6.00 Build 0)  -->
<!DOCTYPE svg PUBLIC "-//W3C//DTD SVG 1.1//EN" "http://www.w3.org/Graphics/SVG/1.1/DTD/svg11.dtd">
<svg version="1.1" id="Layer_1" xmlns="http://www.w3.org/2000/svg" xmlns:xlink="http://www.w3.org/1999/xlink" x="0px" y="0px"
	 viewBox="0 0 200 200" enable-background="new 0 0 200 200" xml:space="preserve">
<g>
	<polygon fill="#5CB2A6" points="140.7,84.1 140.7,91.7 140.7,92.2 140.7,99.7 132.5,99.7 124.4,99.7 116.3,99.7 108.2,99.7 
		100,99.7 100,107.8 108.2,107.8 116.3,107.8 116.3,115.9 124.4,115.9 124.4,107.8 132.5,107.8 140.7,107.8 148.8,107.8 148.8,99.8 
		148.8,99.7 148.8,92.2 148.8,91.7 148.8,84.1 	"/>
	<path fill="#5CB2A6" d="M91.8,91.6h-8.1h-8.1v8.1h-8.1h-8.1h-8.1v8.1h8.1h8.1h8.1h8.1h8.1v8.1h8.1v-8.1h0.1v-8.1h-8.1V91.6z
		 M85.7,93.5h4.2v4.2h-4.2V93.5z M77.6,93.5h4.2v4.2h-4.2V93.5z"/>
	<rect x="85.7" y="93.5" width="4.2" height="4.2"/>
	<rect x="77.6" y="93.5" width="4.2" height="4.2"/>
</g>
</svg>
