<?xml version="1.0" encoding="utf-8"?>
<!-- Generator: Adobe Illustrator 18.0.0, SVG Export Plug-In . SVG Version: 6.00 Build 0)  -->
<!DOCTYPE svg PUBLIC "-//W3C//DTD SVG 1.1//EN" "http://www.w3.org/Graphics/SVG/1.1/DTD/svg11.dtd">
<svg version="1.1" id="Layer_1" xmlns="http://www.w3.org/2000/svg" xmlns:xlink="http://www.w3.org/1999/xlink" x="0px" y="0px"
	 viewBox="0 0 200 200" enable-background="new 0 0 200 200" xml:space="preserve">
<pattern  width="52.1" height="34.5" patternUnits="userSpaceOnUse" id="New_Pattern_Swatch_1_copy" viewBox="12.5 -45.8 52.1 34.5" overflow="visible">
	<g>
		<polygon fill="none" points="12.5,-45.8 64.7,-45.8 64.7,-11.3 12.5,-11.3 		"/>
		<g>
			<path fill="#A8ECFF" d="M67.1-10c0,1.3-1.1,2.3-2.4,2.3c-1.3,0-2.4-1-2.4-2.3s2.3-3.8,2.4-3.8S67.1-11.3,67.1-10z"/>
			<polygon fill="none" points="77.2,0 52.1,0 52.1,-22.5 77.2,-22.5 			"/>
		</g>
		<g>
			<path fill="#A8ECFF" d="M14.9-10c0,1.3-1.1,2.3-2.4,2.3s-2.4-1-2.4-2.3s2.2-3.8,2.4-3.8S14.9-11.3,14.9-10z"/>
			<polygon fill="none" points="25.1,0 0,0 0,-22.5 25.1,-22.5 			"/>
		</g>
		<g>
			<path fill="#A8ECFF" d="M67.1-44.5c0,1.3-1.1,2.3-2.4,2.3c-1.3,0-2.4-1-2.4-2.3c0-1.3,2.3-3.8,2.4-3.8S67.1-45.8,67.1-44.5z"/>
			<polygon fill="none" points="77.2,-34.5 52.1,-34.5 52.1,-57 77.2,-57 			"/>
		</g>
		<g>
			<path fill="#A8ECFF" d="M41-27.3c0,1.3-1.1,2.3-2.4,2.3s-2.4-1-2.4-2.3c0-1.3,2.2-3.8,2.4-3.8S41-28.6,41-27.3z"/>
			<polygon fill="none" points="51.1,-17.3 26.1,-17.3 26.1,-39.8 51.1,-39.8 			"/>
		</g>
		<g>
			<path fill="#A8ECFF" d="M14.9-44.5c0,1.3-1.1,2.3-2.4,2.3s-2.4-1-2.4-2.3c0-1.3,2.2-3.8,2.4-3.8S14.9-45.8,14.9-44.5z"/>
			<polygon fill="none" points="25.1,-34.5 0,-34.5 0,-57 25.1,-57 			"/>
		</g>
	</g>
</pattern>
<rect x="0.4" y="-0.3" fill="url(#New_Pattern_Swatch_1_copy)" width="199.1" height="200"/>
</svg>
