<?xml version="1.0" encoding="utf-8"?>
<!-- Generator: Adobe Illustrator 18.0.0, SVG Export Plug-In . SVG Version: 6.00 Build 0)  -->
<!DOCTYPE svg PUBLIC "-//W3C//DTD SVG 1.1//EN" "http://www.w3.org/Graphics/SVG/1.1/DTD/svg11.dtd">
<svg version="1.1" id="Layer_1" xmlns="http://www.w3.org/2000/svg" xmlns:xlink="http://www.w3.org/1999/xlink" x="0px" y="0px"
	 viewBox="0 0 200 200" enable-background="new 0 0 200 200" xml:space="preserve">
<pattern  width="40.4" height="40.7" patternUnits="userSpaceOnUse" id="New_Pattern_Swatch_2" viewBox="0 -40.7 40.4 40.7" overflow="visible">
	<g>
		<polygon fill="none" points="0,0 40.4,0 40.4,-40.7 0,-40.7 		"/>
		<polygon points="28.7,-21.3 28.7,-20.5 29.5,-20.5 29.5,-21.3 		"/>
		<g>
			<path fill="#FF23E6" d="M32.6-20.3l-4.2,2.4l-4.2,2.4l0,0l-10,7.9l1.9-12.5l-0.1,0l-4.2,2.3l-4.3,2.4v-4.8V-25l4.3,2.4l4.2,2.3
				l0.1,0l-1.9-12.6l10,7.9l-0.8,0.5l0.8-0.4l4.2,2.4L32.6-20.3z M29.5-20.5v-0.8h-0.8v0.8H29.5z"/>
			<polygon fill="none" points="40.4,0 0,0 0,-40.7 40.4,-40.7 			"/>
		</g>
	</g>
</pattern>
<rect x="-0.1" y="-0.2" fill="url(#New_Pattern_Swatch_2)" width="199.7" height="199.4"/>
</svg>
