<?xml version="1.0" encoding="utf-8"?>
<!-- Generator: Adobe Illustrator 18.0.0, SVG Export Plug-In . SVG Version: 6.00 Build 0)  -->
<!DOCTYPE svg PUBLIC "-//W3C//DTD SVG 1.1//EN" "http://www.w3.org/Graphics/SVG/1.1/DTD/svg11.dtd">
<svg version="1.1" id="Layer_1" xmlns="http://www.w3.org/2000/svg" xmlns:xlink="http://www.w3.org/1999/xlink" x="0px" y="0px"
	 viewBox="0 0 144 144" enable-background="new 0 0 144 144" xml:space="preserve">
<pattern  width="35.9" height="36" patternUnits="userSpaceOnUse" id="New_Pattern_Swatch_1" viewBox="0 -36 35.9 36" overflow="visible">
	<g>
		<polygon fill="none" points="35.9,0 0,0 0,-36 35.9,-36 		"/>
		<g>
			<polygon fill="#5CB2A6" points="26.7,-22.8 26.7,-21.5 26.7,-21.4 26.7,-20 26.7,-20 26.7,-18.6 25.3,-18.6 23.8,-18.6 
				22.3,-18.6 22.3,-17.1 20.9,-17.1 20.9,-18.6 19.4,-18.6 17.9,-18.6 17.9,-20 19.4,-20 20.9,-20 22.3,-20 23.8,-20 25.3,-20 
				25.3,-21.4 25.3,-21.5 25.3,-22.8 			"/>
			<path fill="#5CB2A6" d="M16.5-21.5v1.5h1.5v1.5h0v1.5h-1.5v-1.5H15h-1.5h-1.5h-1.5H9.2V-20h1.5h1.5h1.5v-1.5H15H16.5L16.5-21.5z
				 M15.4-20.4h0.8v-0.8h-0.8V-20.4z M13.9-20.4h0.8v-0.8h-0.8V-20.4z"/>
			<polygon points="15.4,-20.4 16.1,-20.4 16.1,-21.1 15.4,-21.1 			"/>
			<polygon points="13.9,-20.4 14.7,-20.4 14.7,-21.1 13.9,-21.1 			"/>
		</g>
	</g>
</pattern>
<pattern  id="SVGID_1_" xlink:href="#New_Pattern_Swatch_1" patternTransform="matrix(8.980554e-12 -0.2 0.2004 8.995357e-12 -6514.1899 -9637.0576)">
</pattern>
<rect x="0.6" y="0.2" fill="url(#SVGID_1_)" width="142.8" height="143.7"/>
</svg>
