<?xml version="1.0" encoding="utf-8"?>
<!-- Generator: Adobe Illustrator 18.0.0, SVG Export Plug-In . SVG Version: 6.00 Build 0)  -->
<!DOCTYPE svg PUBLIC "-//W3C//DTD SVG 1.1//EN" "http://www.w3.org/Graphics/SVG/1.1/DTD/svg11.dtd">
<svg version="1.1" id="Layer_1" xmlns="http://www.w3.org/2000/svg" xmlns:xlink="http://www.w3.org/1999/xlink" x="0px" y="0px"
	 viewBox="0 0 144 144" enable-background="new 0 0 144 144" xml:space="preserve">
<pattern  width="71.6" height="71.5" patternUnits="userSpaceOnUse" id="New_Pattern_Swatch_2" viewBox="17.9 -89.4 71.6 71.5" overflow="visible">
	<g>
		<polygon fill="none" points="17.9,-89.4 89.5,-89.4 89.5,-17.9 17.9,-17.9 		"/>
		<g>
			<g>
				<polygon fill="#76E3D4" points="69.3,-26.9 70.7,-26.9 70.8,-26.9 72.1,-26.9 72.2,-26.9 73.6,-26.9 73.6,-25.4 73.6,-23.9 
					73.6,-22.5 75,-22.5 75,-21 73.6,-21 73.6,-19.6 73.6,-18.1 72.1,-18.1 72.1,-19.6 72.1,-21 72.1,-22.5 72.1,-23.9 72.1,-25.4 
					70.8,-25.4 70.7,-25.4 69.3,-25.4 				"/>
				<path fill="#76E3D4" d="M70.7-16.6h1.5v-1.5h1.5v0H75v1.5h-1.5v1.5v1.5v1.5v1.5v1.5h-1.5v-1.5v-1.5v-1.5h-1.5v-1.5V-16.6
					L70.7-16.6z M71.8-15.5v-0.8H71v0.8H71.8z M71.8-14.1v-0.8H71v0.8H71.8z"/>
			</g>
			<polygon fill="none" points="89.5,-35.8 89.5,0 53.7,0 53.7,-35.8 			"/>
		</g>
		<g>
			<g>
				<polygon fill="#76E3D4" points="33.5,-26.9 34.9,-26.9 35,-26.9 36.3,-26.9 36.3,-26.9 37.8,-26.9 37.8,-25.4 37.8,-23.9 
					37.8,-22.5 39.2,-22.5 39.2,-21 37.8,-21 37.8,-19.6 37.8,-18.1 36.3,-18.1 36.3,-19.6 36.3,-21 36.3,-22.5 36.3,-23.9 
					36.3,-25.4 35,-25.4 34.9,-25.4 33.5,-25.4 				"/>
				<path fill="#76E3D4" d="M34.9-16.6h1.5v-1.5h1.5v0h1.5v1.5h-1.5v1.5v1.5v1.5v1.5v1.5h-1.5v-1.5v-1.5v-1.5h-1.5v-1.5V-16.6
					L34.9-16.6z M36-15.5v-0.8h-0.8v0.8H36z M36-14.1v-0.8h-0.8v0.8H36z"/>
			</g>
			<polygon fill="none" points="53.7,-35.8 53.7,0 17.9,0 17.9,-35.8 			"/>
		</g>
		<g>
			<g>
				<polygon fill="#76E3D4" points="87.2,-62.6 88.6,-62.6 88.7,-62.6 90,-62.6 90.1,-62.6 91.5,-62.6 91.5,-61.2 91.5,-59.7 
					91.5,-58.2 92.9,-58.2 92.9,-56.8 91.5,-56.8 91.5,-55.3 91.5,-53.8 90,-53.8 90,-55.3 90,-56.8 90,-58.2 90,-59.7 90,-61.2 
					88.7,-61.2 88.6,-61.2 87.2,-61.2 				"/>
				<path fill="#76E3D4" d="M88.6-52.4H90v-1.5h1.5v0h1.5v1.5h-1.5v1.5v1.5v1.5v1.5v1.5H90v-1.5V-48v-1.5h-1.5v-1.5V-52.4L88.6-52.4
					z M89.7-51.3V-52h-0.8v0.8H89.7z M89.7-49.8v-0.8h-0.8v0.8H89.7z"/>
				<polygon points="89.7,-51.3 89.7,-52 88.9,-52 88.9,-51.3 				"/>
				<polygon points="89.7,-49.8 89.7,-50.6 88.9,-50.6 88.9,-49.8 				"/>
			</g>
			<polygon fill="none" points="107.4,-71.5 107.4,-35.8 71.6,-35.8 71.6,-71.5 			"/>
		</g>
		<g>
			<g>
				<polygon fill="#76E3D4" points="51.4,-62.6 52.8,-62.6 52.9,-62.6 54.2,-62.6 54.2,-62.6 55.7,-62.6 55.7,-61.2 55.7,-59.7 
					55.7,-58.2 57.1,-58.2 57.1,-56.8 55.7,-56.8 55.7,-55.3 55.7,-53.8 54.2,-53.8 54.2,-55.3 54.2,-56.8 54.2,-58.2 54.2,-59.7 
					54.2,-61.2 52.9,-61.2 52.8,-61.2 51.4,-61.2 				"/>
				<path fill="#76E3D4" d="M52.8-52.4h1.5v-1.5h1.5v0h1.5v1.5h-1.5v1.5v1.5v1.5v1.5v1.5h-1.5v-1.5V-48v-1.5h-1.5v-1.5V-52.4
					L52.8-52.4z M53.9-51.3V-52h-0.8v0.8H53.9z M53.9-49.8v-0.8h-0.8v0.8H53.9z"/>
				<polygon points="53.9,-51.3 53.9,-52 53.1,-52 53.1,-51.3 				"/>
				<polygon points="53.9,-49.8 53.9,-50.6 53.1,-50.6 53.1,-49.8 				"/>
			</g>
			<polygon fill="none" points="71.6,-71.5 71.6,-35.8 35.8,-35.8 35.8,-71.5 			"/>
		</g>
		<g>
			<g>
				<polygon fill="#76E3D4" points="15.6,-62.6 17,-62.6 17.1,-62.6 18.4,-62.6 18.4,-62.6 19.9,-62.6 19.9,-61.2 19.9,-59.7 
					19.9,-58.2 21.3,-58.2 21.3,-56.8 19.9,-56.8 19.9,-55.3 19.9,-53.8 18.4,-53.8 18.4,-55.3 18.4,-56.8 18.4,-58.2 18.4,-59.7 
					18.4,-61.2 17.1,-61.2 17,-61.2 15.6,-61.2 				"/>
				<path fill="#76E3D4" d="M17-52.4h1.5v-1.5h1.5v0h1.5v1.5h-1.5v1.5v1.5v1.5v1.5v1.5h-1.5v-1.5V-48v-1.5H17v-1.5V-52.4L17-52.4z
					 M18.1-51.3V-52h-0.8v0.8H18.1z M18.1-49.8v-0.8h-0.8v0.8H18.1z"/>
				<polygon points="18.1,-51.3 18.1,-52 17.3,-52 17.3,-51.3 				"/>
				<polygon points="18.1,-49.8 18.1,-50.6 17.3,-50.6 17.3,-49.8 				"/>
			</g>
			<polygon fill="none" points="35.8,-71.5 35.8,-35.8 0,-35.8 0,-71.5 			"/>
		</g>
		<g>
			<g>
				<path fill="#76E3D4" d="M70.7-88.1h1.5v-1.5h1.5v0H75v1.5h-1.5v1.5v1.5v1.5v1.5v1.5h-1.5v-1.5v-1.5v-1.5h-1.5v-1.5V-88.1
					L70.7-88.1z M71.8-87v-0.8H71v0.8H71.8z M71.8-85.6v-0.8H71v0.8H71.8z"/>
				<polygon points="71.8,-87 71.8,-87.8 71,-87.8 71,-87 				"/>
				<polygon points="71.8,-85.6 71.8,-86.3 71,-86.3 71,-85.6 				"/>
			</g>
			<polygon fill="none" points="89.5,-107.2 89.5,-71.5 53.7,-71.5 53.7,-107.2 			"/>
		</g>
		<g>
			<g>
				<path fill="#76E3D4" d="M34.9-88.1h1.5v-1.5h1.5v0h1.5v1.5h-1.5v1.5v1.5v1.5v1.5v1.5h-1.5v-1.5v-1.5v-1.5h-1.5v-1.5V-88.1
					L34.9-88.1z M36-87v-0.8h-0.8v0.8H36z M36-85.6v-0.8h-0.8v0.8H36z"/>
				<polygon points="36,-87 36,-87.8 35.2,-87.8 35.2,-87 				"/>
				<polygon points="36,-85.6 36,-86.3 35.2,-86.3 35.2,-85.6 				"/>
			</g>
			<polygon fill="none" points="53.7,-107.2 53.7,-71.5 17.9,-71.5 17.9,-107.2 			"/>
		</g>
	</g>
</pattern>
<pattern  id="SVGID_1_" xlink:href="#New_Pattern_Swatch_2" patternTransform="matrix(0.5 0 0 0.5 -4037.6594 -4012.375)">
</pattern>
<rect y="-0.2" fill="url(#SVGID_1_)" width="144" height="143.8"/>
</svg>
