<?xml version="1.0" encoding="utf-8"?>
<!-- Generator: Adobe Illustrator 18.0.0, SVG Export Plug-In . SVG Version: 6.00 Build 0)  -->
<!DOCTYPE svg PUBLIC "-//W3C//DTD SVG 1.1//EN" "http://www.w3.org/Graphics/SVG/1.1/DTD/svg11.dtd">
<svg version="1.1" id="Layer_1" xmlns="http://www.w3.org/2000/svg" xmlns:xlink="http://www.w3.org/1999/xlink" x="0px" y="0px"
	 viewBox="0 0 200 200" enable-background="new 0 0 200 200" xml:space="preserve">
<g>
	<rect x="94.4" y="123.1" fill="#08C10A" width="11.5" height="11.5"/>
	<rect x="82.9" y="123.1" fill="#08C10A" width="11.5" height="11.5"/>
	<rect x="71.4" y="123.1" fill="#08C10A" width="11.5" height="11.5"/>
	<rect x="59.9" y="123.1" fill="#08C10A" width="11.5" height="11.5"/>
	<rect x="59.9" y="111.7" fill="#08C10A" width="11.5" height="11.5"/>
	<rect x="59.9" y="101" fill="#08C10A" width="11.5" height="11.5"/>
	<rect x="105.9" y="123.1" fill="#08C10A" width="11.5" height="11.5"/>
	<rect x="117.4" y="123.1" fill="#08C10A" width="11.5" height="11.5"/>
	<rect x="94.4" y="134.5" fill="#08C10A" width="11.5" height="11.5"/>
	<g>
		<rect x="117.2" y="111.5" fill="#08C10A" width="11.5" height="11.5"/>
		<rect x="117.2" y="100" fill="#08C10A" width="11.5" height="11.5"/>
		<rect x="105.7" y="100" fill="#08C10A" width="11.5" height="11.5"/>
		<rect x="105.7" y="88.5" fill="#08C10A" width="11.5" height="11.5"/>
		<rect x="117.2" y="88.5" fill="#08C10A" width="11.5" height="11.5"/>
		<rect x="128.6" y="111.4" fill="#08C10A" width="11.5" height="11.5"/>
		<g>
			<rect x="117.2" y="77" fill="#08C10A" width="11.5" height="11.5"/>
			<rect x="117.2" y="65.5" fill="#08C10A" width="11.5" height="11.5"/>
		</g>
		<rect x="117.2" y="54" fill="#08C10A" width="11.5" height="11.5"/>
		<rect x="108.4" y="102.8" width="6" height="6"/>
		<rect x="108.4" y="91.3" width="6" height="6"/>
	</g>
</g>
</svg>
